/* XPM */
static char *c34e6c735791447eb03ccdda59e0b53ao68MR4VAu59RQfaf[] = {
/* columns rows colors chars-per-pixel */
"32 32 161 2 ",
"   c #C40027",
".  c #C81F2E",
"X  c #D53A3D",
"o  c #D62445",
"O  c #CC3653",
"+  c #DA3357",
"@  c #D73856",
"#  c #D83759",
"$  c #E13745",
"%  c #A76757",
"&  c #A8795D",
"*  c #BA7979",
"=  c #D54543",
"-  c #D5574C",
";  c #CA4957",
":  c #CF415A",
">  c #D64A59",
",  c #CA5057",
"<  c #ED534B",
"1  c #E84F5F",
"2  c #F65B5D",
"3  c #C86347",
"4  c #C77747",
"5  c #C26459",
"6  c #C76C5B",
"7  c #CB6C5C",
"8  c #C97952",
"9  c #C4775F",
"0  c #D05F60",
"q  c #ED5461",
"w  c #EC5861",
"e  c #F25D64",
"r  c #F55C68",
"t  c #C47360",
"y  c #C87C65",
"u  c #E36461",
"i  c #F46365",
"p  c #F86767",
"a  c #F76F69",
"s  c #F9726A",
"d  c #459D57",
"f  c #53B063",
"g  c #74A060",
"h  c #7CB966",
"j  c #AA8F61",
"k  c #AF9967",
"l  c #BF9766",
"z  c #B79669",
"x  c #B08970",
"c  c #8FB769",
"v  c #8EBD6A",
"b  c #9ABC6C",
"n  c #BFA66D",
"m  c #CC8363",
"M  c #CA8A68",
"N  c #D28264",
"B  c #C7966B",
"V  c #CD9369",
"C  c #D39169",
"Z  c #D39C6C",
"A  c #C59E70",
"S  c #C5A96F",
"D  c #D3AE64",
"F  c #D5A56F",
"G  c #DEB46B",
"H  c #C8A677",
"J  c #C7AA70",
"K  c #CDAA7E",
"L  c #D4A471",
"P  c #D9A374",
"I  c #D9AE76",
"U  c #D8AF7D",
"Y  c #CBB173",
"T  c #D3B575",
"R  c #DDBB77",
"E  c #D6B878",
"W  c #DEBE7A",
"Q  c #E4BC76",
"!  c #E1B879",
"~  c #96C16D",
"^  c #A8C674",
"/  c #B3C574",
"(  c #BEC774",
")  c #C8C979",
"_  c #DAC97B",
"`  c #DBD37D",
"'  c #E8C56E",
"]  c #EEC876",
"[  c #E3C67E",
"{  c #F3CE75",
"}  c #F6D078",
"|  c #FDDA7F",
" . c #BA8589",
".. c #AA8F9C",
"X. c #AC9C9B",
"o. c #B19B94",
"O. c #BBAB8D",
"+. c #BDAB92",
"@. c #B6AC9E",
"#. c #ACA4AD",
"$. c #B1AFA8",
"%. c #AEB3AE",
"&. c #B6B3A5",
"*. c #B7B9AF",
"=. c #ADB6B5",
"-. c #AEBABB",
";. c #B5BAB5",
":. c none",
">. c #C7AA87",
",. c #D0AE81",
"<. c #CDB287",
"1. c #D4B084",
"2. c #DFB786",
"3. c #DAB68C",
"4. c #DCB88F",
"5. c #E4B984",
"6. c #E3BD93",
"7. c #D5D680",
"8. c #ECCD82",
"9. c #EBC08A",
"0. c #F0C48D",
"q. c #EAD382",
"w. c #F3D485",
"e. c #F9D586",
"r. c #F4DB86",
"t. c #FBDC85",
"y. c #FDDD88",
"u. c #E7C296",
"i. c #EAC597",
"p. c #EFCA9B",
"a. c #F6C993",
"s. c #FDD19C",
"d. c #FFE48C",
"f. c #FFE88E",
"g. c #FFEC93",
"h. c #FDD5A3",
"j. c #FFDAA5",
"k. c #FFD7A8",
"l. c #FFDEAB",
"z. c #FFE1AD",
"x. c #AFBEC0",
"c. c #ADBDCD",
"v. c #B0BBC5",
"b. c #AEC1C7",
"n. c none",
"m. c none",
"M. c none",
"N. c none",
"B. c none",
"V. c none",
"C. c none",
"Z. c none",
"A. c none",
"S. c none",
"D. c none",
"F. c none",
"G. c none",
"H. c none",
"J. c none",
"K. c none",
"L. c none",
/* pixels */
"J.J.J.J.J.J.J.J.J.J.J.J.J.J.J.J.J.J.J.J.J.J.J.J.J.J.J.J.J.J.J.J.",
"J.J.J.J.J.J.J.J.J.J.J.J.J.J.J.J.H.J.J.J.J.J.J.J.J.J.J.J.J.J.J.J.",
"J.J.J.J.J.J.J.J.J.J.J.J.J.K.L.K.K.K.K.K.L.L.H.J.J.J.J.J.J.J.J.J.",
"J.J.J.J.J.J.J.J.J.J.J.L.J.D.B.b.-.;.;.x.M.D.H.K.J.H.J.J.J.J.J.J.",
"J.J.J.J.J.J.J.J.J.J.K.C.*.>.2.9.0.a.0.0.5.<.&.n.J.L.J.J.J.J.J.J.",
"J.J.J.J.J.J.J.J.L.S.$.1.a.j.z.h.4.z.h.4.l.l.s.5.O.N.L.J.J.J.J.J.",
"J.J.J.J.J.J.J.K.N.>.a.l.l.3.u.6.z 4.>.H h.3.i.z.s.U =.J.J.J.J.J.",
"J.J.J.J.J.J.K.B.A h.j.i.u.H E W q.d _ I % & K 6.i.l.5.%.J.J.J.J.",
"J.J.J.J.J.H.K.n.S z.p.& % 8.d.d.r.~ Y , i > B [ H k.s.@.J.J.J.J.",
"J.J.J.J.J.J.K.H.k <.z u w 5 w.( q.d.M w a r N 7.g ,.l N.K.J.J.J.",
"J.J.K.J.J.J.F.K.m.D 0 p p > R h c f.F + i + Z b ^ y.+.H.J.J.J.J.",
"J.J.J.J.J.K.J.K.S.>.6 q e ; w.r._ d.t.F N V y.q.M 4 v.K.H.J.H.J.",
"J.J.F.K.J.J.J.J.K.;.G y 9 I T [ d.t.y.w.n w.d.t # 0 D.L.K.J.J.J.",
"J.J.K.J.J.J.J.J.K.B.W d.d.Y J k _ d.r.j T k 8.0 < #.L.J.J.J.J.J.",
"J.J.J.J.J.J.J.J.J.K.o.8 L [ d.w.} d.t.[ f.] e.m ; Z.L.G.J.J.J.J.",
"J.J.J.J.J.K.J.J.H.K.c.X # F d.w.k w.J T d.y.d.] X.J.J.J.J.J.J.J.",
"J.J.J.J.J.J.J.J.J.K.H.* 2 t c ` 8.k Y y.d.y.d._ V.K.G.J.J.J.J.J.",
"J.J.J.J.J.J.J.J.J.H.L.:.  P v b ! m Z e.r.) | +.J.J.J.J.J.J.J.J.",
"J.J.J.J.J.L.J.J.J.J.J.D.x y.y.Y O r + C / f ' n.K.J.J.J.J.J.J.J.",
"J.J.J.J.J.J.J.J.J.J.J.L.;.{ g.F 1 s p 7 ) _ <.F.J.J.J.J.J.J.J.J.",
"J.J.J.J.J.J.J.J.J.J.J.L.A.T d.! , q @ Z g.} -.K.J.J.J.J.J.J.J.J.",
"J.J.J.J.J.J.J.J.J.J.J.J.L.X.3 y B C L U Z B D.J.J.J.J.J.J.J.L.J.",
"J.J.J.J.J.J.J.J.J.J.J.G.L.M.= r 6 d.! : $ ..K.J.J.J.J.J.J.J.J.J.",
"J.J.J.J.J.L.J.J.J.J.J.J.J.J.* 2 , 8.m r - B.K.J.J.J.J.J.J.J.J.J.",
"J.J.J.J.J.K.J.J.J.J.J.J.J.K.v.. M d.P o  .J.J.J.J.J.J.J.J.J.J.J.",
"J.J.J.J.J.J.J.J.J.J.J.J.J.J.G.x e.d.y.4 v.L.H.J.J.J.J.J.J.J.J.J.",
"J.J.J.J.J.J.J.J.J.J.J.J.J.J.L.V.I t.Q 4.J.J.J.J.J.J.J.J.J.J.J.J.",
"J.J.J.J.J.J.J.J.J.K.J.J.J.J.J.K.N.&.:.H.J.J.J.J.J.J.J.J.J.J.J.J.",
"J.J.J.J.J.J.J.J.J.J.J.J.J.J.J.J.J.K.L.J.J.J.J.J.L.J.L.J.J.J.J.J.",
"J.K.J.J.J.J.J.J.J.J.J.J.J.J.J.J.J.H.J.J.J.J.J.J.H.J.H.J.J.J.J.J.",
"J.J.J.J.J.J.J.J.J.J.J.J.J.J.J.J.J.J.J.J.J.J.J.J.J.J.J.J.J.J.J.J.",
"J.J.J.J.J.J.J.J.J.J.J.J.J.J.J.J.J.J.J.J.J.J.J.J.J.J.J.J.J.J.J.J."
};
