/* XPM */
static char *ca5fa897bea14ca4e702cc928c35a1afmSR0W2PiXR7ZELw3[] = {
/* columns rows colors chars-per-pixel */
"32 32 112 2 ",
"   c #24405E",
".  c #294B65",
"X  c #2B4C65",
"o  c #334E65",
"O  c #3A5269",
"+  c #39566E",
"@  c #3A5973",
"#  c #3B5973",
"$  c #3E5A73",
"%  c #5A565F",
"&  c #6D5D5F",
"*  c none",
"=  c #46566B",
"-  c #415A72",
";  c #475B70",
":  c #475C72",
">  c #495C72",
",  c #485C73",
"<  c none",
"1  c none",
"2  c #515E72",
"3  c none",
"4  c #635E6E",
"5  c #645F6F",
"6  c #536073",
"7  c none",
"8  c none",
"9  c #6A646D",
"0  c #7B6563",
"q  c #666471",
"w  c #686571",
"e  c #6D6872",
"r  c #736970",
"t  c #756A70",
"y  c #BC7E52",
"u  c #906E61",
"i  c #87706E",
"p  c #8B726E",
"a  c #8C726E",
"s  c #8C736E",
"d  c #957061",
"f  c #9A7361",
"g  c #A57D6B",
"h  c #A97F6B",
"j  c #BB8B5E",
"k  c #AF9567",
"l  c #BA9F6D",
"z  c #CE8D5E",
"x  c #DC935F",
"c  c #DC945F",
"v  c #CD8F63",
"b  c #CD9362",
"n  c #CB9E6A",
"m  c #D79563",
"M  c #DC9460",
"N  c #DE9560",
"B  c #DD9763",
"V  c #DA9764",
"C  c #DE9963",
"Z  c #DC9865",
"A  c #DC9A65",
"S  c #DF9B65",
"D  c #D99D67",
"F  c #E09761",
"G  c #E19963",
"H  c #E39B62",
"J  c #E39C63",
"K  c #E59C62",
"L  c #E59D62",
"P  c #E09B65",
"I  c #E59D64",
"U  c #E19F68",
"Y  c #CFA36E",
"T  c #CFA46E",
"R  c #D2A26D",
"E  c #D1A56F",
"W  c #D9A46D",
"Q  c #DEA46E",
"!  c #C7A470",
"~  c #DBAF76",
"^  c #D2B179",
"/  c #D0B47B",
"(  c #D2B47B",
")  c #D0B47C",
"_  c #D1B57C",
"`  c #E1A16A",
"'  c #E2A36B",
"]  c #E3A46C",
"[  c #E3A56D",
"{  c #E3A66D",
"}  c #E6AC72",
"|  c #E7B075",
" . c #E8B277",
".. c #E9B378",
"X. c #E9B478",
"o. c #E9B579",
"O. c none",
"+. c #E3C083",
"@. c #F0C585",
"#. c #F1C887",
"$. c #F1C988",
"%. c #F3CA89",
"&. c #F3CC8B",
"*. c #F3CE8C",
"=. c #F4CD8C",
"-. c #F4CF8C",
";. c #F5CF8D",
":. c #F5D08D",
">. c #F5D08E",
",. c #F7D18E",
"<. c #F7D491",
"1. c none",
/* pixels */
"1 1 1 1 1 1 1 1 < - i h h h h h h h h h h h h g t # 1 1 1 1 1 1 ",
"1 1 1 1 1 1 1 3 @ h L L K L L L K K K L K J K K H a $ 3 1 1 1 1 ",
"1 1 1 1 1 1 1 : r J C C x F c F M V M H M H c C H b < 1 3 1 1 1 ",
"1 1 1 1 1 1 3 @ p J C D E E E R A H A Y E R E A H V q , 1 1 1 1 ",
"1 1 1 1 1 1 3 @ s J M W / / / ^ A H D _ _ ^ ( D K V w > 1 1 1 1 ",
"1 1 1 1 1 1 3 @ s J M | >.&.>.@.F M [ ;.>.;.;.' M Z q > 1 3 1 1 ",
"1 1 1 1 1 1 3 # s J M | >.&.&.&.P F [ ;.&.;.&.' M Z w , 1 1 1 1 ",
"1 1 1 1 1 1 3 # s J c | >.&.;.&.P M [ >.;.&.;.' M V w , 1 1 1 1 ",
"1 1 1 1 1 1 3 # a J c | <.&.>.#.H c ' =.:.=.=.U K V q > 3 1 1 1 ",
"1 1 1 1 1 1 3 # a J c | &.&.>.#.S c [ :.:.:.=.Q M V q > 1 1 1 1 ",
"1 1 1 1 1 1 3 # p J c | <.&.;.&.U x { :.&.&.:.' H V q > 1 1 1 1 ",
"1 1 1 1 1 1 3 # p J M | ;.&.&.@.U M ' :.&.=.>.Q M V q > 1 1 1 1 ",
"1 1 1 1 1 1 3 # p J M  .<.>.<.&.H M [ <.;.>.&.} M V w > 3 1 1 1 ",
"1 1 1 1 1 1 3 # p J M [ o.o. . .H M ' o.} @.>.>.@.V q , 1 1 1 1 ",
"1 1 1 1 1 1 3 # p H C M M M M M A Z C x M &.;.;.;.] 4 , 3 1 1 1 ",
"1 1 1 1 1 1 3 # p H C H H H H H K H M H H &.;.;.;.Q 5 < 1 1 1 1 ",
"1 1 1 1 1 1 3 # p L C D T T T E A L V E n ! #.&.~ z e > < 1 1 1 ",
"1 1 1 1 1 1 3 # p L c W ( ( ( ^ M M W _ ( l k j j m q > < 1 1 1 ",
"1 1 1 1 1 1 3 # p J c | >.:.:.#.H M [ ;.:.:.+.b x C q > 3 1 1 1 ",
"1 1 1 1 1 1 3 # p J c | >.&.>.#.P M ] ;.:.:.,.' x c q > 1 1 1 1 ",
"1 1 1 1 1 1 3 # p J c | >.&.>.#.P x [ >.>.=.&.' C M q > 3 1 1 1 ",
"1 1 1 1 1 1 3 @ p J c | >.>.>.#.P F [ ;.=.=.>.' M A q > 1 1 1 1 ",
"1 1 1 1 1 1 3 @ p J c | >.&.>.#.P M [ ;.=.&.=.' H V q > 3 1 1 1 ",
"1 1 1 1 1 1 3 @ p J c | >.&.>.#.P M [ >.=.:.=.' M V 9 > 1 1 1 1 ",
"1 1 1 1 1 1 3 # p H M } >.>.;.#.U M ' ;.;.;.&.' H V q > 6 1 1 1 ",
"1 1 1 1 1 1 3 # p K x | <.>.;.&.H c [ ;.;.;.;.[ M V q > < < 1 1 ",
"1 1 1 1 1 1 3 @ a L M [ o.o.o. .A C ' o...o.o.U H M q > 1 1 1 1 ",
"1 1 1 1 1 1 1 > 9 C P M M x x x C C M c c x M M P v : < 1 1 1 1 ",
"8 1 1 1 1 1 1 7 + f K I I I I I L K K I U L L I M 0 # 7 1 1 1 1 ",
"* 8 1 1 1 1 1 1 7 o & u d d d d u f f u d d u u % O 7 1 1 1 1 1 ",
"O.  8 1 1 1 1 1 1 1 * . . . . . . . . . X X X X = 6 1 1 1 1 1 1 ",
"1.O.* 7 1 1 1 1 1 1 8 7 7 7 7 3 3 3 3 3 7 7 7 7 1 < 1 1 1 1 1 1 "
};
