/* XPM */
static char *U2NyZWVuK1Nob3QrMjAyMi0wMy0xOCthdCs5LjUwLjA1K0FN[] = {
/* columns rows colors chars-per-pixel */
"32 32 63 1 ",
"  c #21340B",
". c #29370C",
"X c #2B3B0E",
"o c #303F0F",
"O c #263313",
"+ c #2A3712",
"@ c #2D3D12",
"# c #2E3C18",
"$ c #303F14",
"% c #323F18",
"& c #2E410F",
"* c #30410E",
"= c #2E4212",
"- c #334414",
"; c #384717",
": c #354916",
"> c #394916",
", c #3C4D17",
"< c #334018",
"1 c #324019",
"2 c #334218",
"3 c #354318",
"4 c #334518",
"5 c #364419",
"6 c #36441A",
"7 c #36441B",
"8 c #37451B",
"9 c #37461D",
"0 c #384619",
"q c #39471D",
"w c #3A471D",
"e c #354918",
"r c #35481A",
"t c #36491B",
"y c #374C18",
"u c #37491D",
"i c #374B1C",
"p c #3A4A18",
"a c #3A481B",
"s c #3C4B19",
"d c #394D19",
"f c #3A4F19",
"g c #384E1A",
"h c #3E4E1B",
"j c #39481D",
"k c #3C4B1D",
"l c #3A4E1C",
"z c #3D4D1D",
"x c #3E521C",
"c c #3E521D",
"v c #3C4B20",
"b c #3C4C21",
"n c #3F4E20",
"m c #3F4E22",
"M c #3F5221",
"N c #404F1F",
"B c #41511D",
"V c #41511F",
"C c #42521F",
"Z c #404F23",
"A c #415022",
"S c #435323",
"D c #4B5A2A",
/* pixels */
"A-,,h,0<=4=--:$$@@=@:::-=:-X-*oo",
"--,:,*:-e5y---$%--ueyy-=:&..*XoX",
"0-a;-$%X..%8@--5#uee:-=&&=@-;.-$",
"0-ha-,<.@-j5$-wv#<-w-5==ye-:->;-",
"--sz,*o->%j--0zZ-a:a:a-=l::A;;--",
"zaaB-->-jj00-;z05--d>,,e-**d-X-$",
"Nzda--,Ba-0-50<$-a-a:e:x&&-e--<0",
"aaazd:BBzzB0#0-%<5<---=::-da---k",
"k<<->::>:-C-%#$@@-j<4=aadhe-:e-5",
"<%j0aa,:-X-><@0;Baazx:=5-5xdxexe",
"bjzjww%0B-h0%0BBxz0z5beuj-:x::::",
"5-Azka;s,:hNss--:-dlMe,-5-yd:e::",
"5<$0zaN:-ah,hz:--ss-a:*-=y:e&&=*",
"jN$$0,:0zh,>>,:>,,;-da:-e:==&4::",
"N,,s0;>h0;BhB,:,;-h-a,dle=e==xd-",
";-skzZh00-0BBB,d:s0-5slx=&y4yx&=",
";j0j<zj---$:,,:=--0-%%a5=eu+4gu=",
"w0-zkj5-k0;-aa:<>0B<$-;5+<<O<e=4",
"Z-zk0kkwkw>,h>;;0-$--,-$4-<=uMy=",
";-<wzb-kzk--a>:-+%-->,>sj-X=ug4=",
"-ssA0azkka;->-->0j--*Bs0-0@ee844",
"v-,a*-h--5;>a:>ass*>-*--@<-jtyde",
"#0z>,sa---%-4--5->N:*$5;a>-la&j=",
":shzh-:X#X.*aa5j--a><hZ;>aa--a,a",
"a-<w# @:-,0s-$eda0zd-b-<a,y:=e44",
"w0vv-ueds-*-$@--e@-e4-Mx5-e<&-xe",
"%<<<54jd-@X$X$XX5540gu:-<#:x=egu",
"%@++b5XX-5;z;N>--zuxye--5X-Ab-jw",
"#%vbAbv8SDhNA:AB--<--e5----az>zs",
"<%v888<wjhhhSB,>-X--j0-5zjkjzcBz",
"00-#l5vAkZNsShd-a,;*-j5-xe50ddBx",
"AAA%waaaBh,h--hzBNha-5-Mel5<-de4"
};
