/* XPM */
static char *ffe3cec5aa96492eee2eb5a307a9d7a3180Pc4zt7mGZlDhp[] = {
/* columns rows colors chars-per-pixel */
"32 32 167 2 ",
"   c #020000",
".  c #300C00",
"X  c #33353B",
"o  c #4D3200",
"O  c #6C6B6A",
"+  c #7D7C7B",
"@  c #B90000",
"#  c #FA0000",
"$  c #F9011D",
"%  c #E60020",
"&  c #EE0030",
"*  c #DD3039",
"=  c #887200",
"-  c #947D0E",
";  c #D06B00",
":  c #D27800",
">  c #DC5D2B",
",  c #D06732",
"<  c #CB7B32",
"1  c #E77B22",
"2  c #887A55",
"3  c #CC666E",
"4  c #A28800",
"5  c #BFA225",
"6  c #CA8400",
"7  c #DF850F",
"8  c #CC9705",
"9  c #DE9600",
"0  c #EA9B13",
"q  c #C2A400",
"w  c #D2A608",
"e  c #CDB100",
"r  c #D7B600",
"t  c #E1A400",
"y  c #E4BA00",
"u  c #D8872C",
"i  c #CA8030",
"p  c #CD9838",
"a  c #DE9A31",
"s  c #EA9B26",
"d  c #E89528",
"f  c #C3A52B",
"g  c #CAAA33",
"h  c #D6AC35",
"j  c #D7B936",
"k  c #DDBC35",
"l  c #DBB538",
"z  c #E8A130",
"x  c #E7B837",
"c  c #E2BE36",
"v  c #F2BC38",
"b  c #E8C400",
"n  c #F4CE00",
"m  c #F6D100",
"M  c #FAD400",
"N  c #FFDB00",
"B  c #E5C315",
"V  c #EBC81A",
"C  c #F9D919",
"Z  c #FED91A",
"A  c #E8C428",
"S  c #EECB2B",
"D  c #F0CD27",
"F  c #FFDA24",
"G  c #FEDA2D",
"H  c #E3C237",
"J  c #ECCB32",
"K  c #E3C33A",
"L  c #E9C739",
"P  c #ECCB3A",
"I  c #F1CE3B",
"U  c #F6CF39",
"Y  c #FBD631",
"T  c #FEDB33",
"R  c #F6D33C",
"E  c #FCD63D",
"W  c #FED93E",
"Q  c #9B8D6B",
"!  c #C7854C",
"~  c #CE884A",
"^  c #C98352",
"/  c #DBA146",
"(  c #D1B754",
")  c #E0BE42",
"_  c #F2B644",
"`  c #C68F68",
"'  c #C29D6C",
"]  c #C9B26E",
"[  c #D1B865",
"{  c #D3BC6E",
"}  c #C6A97A",
"|  c #CBB471",
" . c #DEC250",
".. c #DEC25B",
"X. c #E3C343",
"o. c #E8C848",
"O. c #F5C841",
"+. c #F3CD43",
"@. c #F7D543",
"#. c #FCD643",
"$. c #FEDB42",
"%. c #FCD64A",
"&. c #FFDA4A",
"*. c #E7C953",
"=. c #E9C953",
"-. c #E2C45B",
";. c #E6C95F",
":. c #FED952",
">. c #FFE24D",
",. c #DCC265",
"<. c #D8C27D",
"1. c none",
"2. c #E3C76D",
"3. c #F8D769",
"4. c #787D87",
"5. c none",
"6. c #BEB38B",
"7. c #8190AC",
"8. c #8996B0",
"9. c none",
"0. c #CF8586",
"q. c #CB9B80",
"w. c #C9B78C",
"e. c #D3BF8B",
"r. c #C6BC9F",
"t. c #CABE9B",
"y. c #D0ABAA",
"u. c none",
"i. c none",
"p. c none",
"a. c none",
"s. c none",
"d. c none",
"f. c none",
"g. c none",
"h. c none",
"j. c none",
"k. c none",
"l. c none",
"z. c none",
"x. c none",
"c. c none",
"v. c none",
"b. c none",
"n. c none",
"m. c none",
"M. c none",
"N. c none",
"B. c none",
"V. c none",
"C. c none",
"Z. c none",
"A. c none",
"S. c none",
"D. c none",
"F. c none",
"G. c none",
"H. c none",
"J. c none",
"K. c none",
"L. c none",
"P. c none",
"I. c none",
"U. c none",
"Y. c none",
"T. c none",
"R. c none",
/* pixels */
"R.D.U.R.R.R.R.R.R.R.R.R.R.R.R.R.R.R.R.R.R.R.R.R.R.R.R.R.R.R.R.R.",
"R.O X u.F.R.R.R.R.R.R.R.R.R.R.R.R.R.R.R.R.R.R.R.R.T.D.B.R.R.R.R.",
"R.b.  q D j.U.R.R.R.R.R.R.R.R.R.R.R.R.R.R.R.R.J.v.Q   + R.R.R.R.",
"R.R.4.4 >.m { G.R.R.R.R.R.R.R.R.R.R.R.R.R.Y.x.X.M -   A.R.R.R.R.",
"R.R.L.2 Y :.Z ( G.R.R.R.R.R.R.R.R.R.R.R.J.<.m $.:.o 9.R.R.R.R.R.",
"R.R.R.S.j W &.F [ P.R.R.R.R.R.R.R.R.R.F...Z &.&.r 5.R.R.R.R.U.R.",
"R.R.R.R.C.K G :.N d.T.A.v.h.h.h.M.J.G.-.G :.G n g.R.T.G.m.s.| P.",
"R.R.R.R.R.D.,.M $.@.a.I M M M M m +.=.T $.M ;.V.I.N.s.K n N 2.Y.",
"R.R.R.R.R.R.U.h.o.R F $.&.#.$.#.&.W W E =.x.S.x...n Z $.&.G s.R.",
"R.R.R.R.R.R.R.T.<.F %.#.E W #.W E $.#.Z a.z.*.m T %.$.E %.M k.R.",
"R.R.R.R.R.R.R.D.S >.G Y E W W E W Y G $.A b T &.#.W E W &.n M.R.",
"R.R.R.R.R.R.R.A.S J | 3.Y $.E $.T 3.] S @.X.W E W W #.#.&.J D.R.",
"R.R.R.R.R.R.R.F.P = 8.t.M $.W $.m r.7.= @.H W #.&.$.T M m <.U.R.",
"R.R.R.R.R.R.R.A.C g   5 $.E L R W f . f W k $.T m S 2.h.M.J.R.R.",
"R.R.R.R.R.R.R.i.9 o.R W W W P W W W E W c g T -.M.F.Y.R.R.R.R.R.",
"R.R.R.R.R.R.R.0.# > R $.L k H H H W $.u $ , @.P C.R.R.R.R.R.R.R.",
"R.R.R.R.R.R.R.y.# & c $.R R W R R W L % $ ; T T B C.R.R.R.R.R.R.",
"R.R.R.R.R.R.R.P.3 7 #.E E W W W W W R 1 * u.1.W $.*.D.R.R.R.R.R.",
"R.R.R.R.R.R.R.R.m.e %.$.W W E E E W $.b 6.P.d.M M B l.R.R.R.R.R.",
"R.R.R.R.R.R.R.R.c.m c I W E W E @.R K S -.,.Z 1.k.G.R.R.R.R.R.R.",
"R.R.R.R.R.R.R.U.,.T $.E W v x v W I E $.J A / S.R.R.R.R.R.R.R.R.",
"R.R.R.R.R.R.R.x.m $.E $.E R U E I W W E W p @ p.R.R.R.R.R.R.R.R.",
"R.R.R.R.R.R.D.H W E W W R H >.P H W W E $.b n.R.R.R.R.R.R.R.R.R.",
"R.R.R.R.R.R.e.Z $.W W E E k W K R W E W @.M f.R.R.R.R.R.R.R.R.R.",
"R.R.R.R.K.S.*.E P $.W E W k E k R W W W H R A G.R.R.R.R.R.R.R.R.",
"R.R.R.H.5  .X.U H W E E W H R K E W W W j $.L t.w.J.R.R.R.R.R.R.",
"R.R.R.T.q.t P $.j @.W $.$.k a z W E W L H W ) y ' Y.R.R.R.R.R.R.",
"R.R.R.R.J.^ d O.P k $.E $.l u h W E $.h E +.s ! H.R.R.R.R.R.R.R.",
"R.R.R.R.R.C.i s z 6 D $.W w < 8 W $.A u _ 0 < C.R.R.R.R.R.R.R.R.",
"R.R.R.R.R.R.V.~ ! q.} J X.z.J.z.V S ' i : ` D.R.R.R.R.R.R.R.R.R.",
"R.R.R.R.R.R.R.H.J.R.Y.F.L.R.R.R.H.Z.U.D.N.U.R.R.R.R.R.R.R.R.R.R.",
"R.R.R.R.R.R.R.R.R.R.R.R.R.R.R.R.R.R.R.R.R.R.R.R.R.R.R.R.R.R.R.R."
};
