/* XPM */
static char *U2NyZWVuK1Nob3QrMjAyMi0wMy0xOCthdCs5LjMyLjM2K0FN[] = {
/* columns rows colors chars-per-pixel */
"32 32 166 2 ",
"   c #000000",
".  c #0D0200",
"X  c #010F01",
"o  c #110700",
"O  c #180000",
"+  c #011401",
"@  c #031A02",
"#  c #091807",
"$  c #0B150E",
"%  c #0D1C0C",
"&  c #101D0F",
"*  c #161616",
"=  c #260000",
"-  c #2C0000",
";  c #340000",
":  c #340A00",
">  c #3D190E",
",  c #201512",
"<  c #022502",
"1  c #042C04",
"2  c #092A07",
"3  c #092008",
"4  c #0C2B0C",
"5  c #043404",
"6  c #083707",
"7  c #073B06",
"8  c #083807",
"9  c #093409",
"0  c #093D09",
"q  c #10340F",
"w  c #162816",
"e  c #1A261A",
"r  c #133B12",
"t  c #242624",
"y  c #232C23",
"u  c #2C2B29",
"i  c #253025",
"p  c #253C25",
"a  c #363636",
"s  c #323932",
"d  c #412017",
"f  c #45231B",
"g  c #4E281D",
"h  c #54281B",
"j  c #482C26",
"k  c #512F27",
"l  c #004100",
"z  c #0B410B",
"x  c #0F490E",
"c  c #005E00",
"v  c #124212",
"b  c #144D13",
"n  c #1C461B",
"m  c #125211",
"M  c #1A531A",
"N  c #1E5D1E",
"B  c #20581F",
"V  c #006700",
"C  c #1D611C",
"Z  c #204420",
"A  c #214F20",
"S  c #225321",
"D  c #225A21",
"F  c none",
"G  c #246523",
"H  c #286928",
"J  c #296F29",
"K  c #2C732B",
"L  c #2E7D2D",
"P  c #316530",
"I  c #356E34",
"U  c none",
"Y  c #3A7439",
"T  c none",
"R  c none",
"E  c #477647",
"W  c #4B734A",
"Q  c none",
"!  c #766F6E",
"~  c #786E78",
"^  c none",
"/  c #7C7573",
"(  c #268625",
")  c #2C8D2B",
"_  c #30862F",
"`  c #338432",
"'  c #368B35",
"]  c #388C37",
"[  c #3B8D3A",
"{  c #3B913A",
"}  c #418840",
"|  c #488B47",
" . c #4A8D49",
".. c #439342",
"X. c #459A44",
"o. c #499F47",
"O. c #4B954A",
"+. c #4C9C4B",
"@. c #529A51",
"#. c #42A040",
"$. c #47AB45",
"%. c #4EA34D",
"&. c #4CB44B",
"*. c #50BB4F",
"=. c #54A553",
"-. c #54AB53",
";. c #58AD57",
":. c #5CA05C",
">. c #5DAE5C",
",. c #54B652",
"<. c #58BF56",
"1. c #5CB35B",
"2. c #5FB85E",
"3. c #60B95F",
"4. c #6E876E",
"5. c #649E64",
"6. c #6C9A6C",
"7. c #789A77",
"8. c #67A066",
"9. c #63BC62",
"0. c #55C054",
"q. c #66C265",
"w. c #68C267",
"e. c #65CC64",
"r. c #6AC569",
"t. c #6DCB6C",
"y. c #70CD6F",
"u. c #6CD36A",
"i. c #73CE72",
"p. c #73D272",
"a. c none",
"s. c none",
"d. c #909C90",
"f. c none",
"g. c #87A087",
"h. c #8BA38B",
"j. c #92A592",
"k. c #96A896",
"l. c none",
"z. c none",
"x. c none",
"c. c none",
"v. c none",
"b. c none",
"n. c none",
"m. c none",
"M. c none",
"N. c none",
"B. c none",
"V. c none",
"C. c none",
"Z. c none",
"A. c none",
"S. c none",
"D. c none",
"F. c none",
"G. c none",
"H. c none",
"J. c none",
"K. c none",
"L. c none",
"P. c none",
"I. c none",
"U. c none",
"Y. c none",
"T. c none",
/* pixels */
"F.U.F.U.F.U.F.T.L.D.D.D.D.D.D.T.T.n.b.b.n.A.J.D.T.F.Y.J.Y.G.U.F.",
"T.F.U.J.U.F.T.Z.x.6.6.6.7.6.6.n.v.$.*.&.&.6.6.h.M.T.D.Y.F.Y.J.Y.",
"F.U.J.U.F.T.C.5.*.t.e.t.t.t.u.( ' p.i.i.i.t.u.q.#.m.T.J.U.J.U.J.",
"T.F.U.F.T.C.5.e.i.y.i.t.t.t.1.T ..9.i.y.t.t.t.i.e.7.J.U.F.U.J.P.",
"J.Y.F.U.C.8.e.p.9.w.w.9.%.X.C K L [ %.1.q.r.t.i.e.g.P.F.U.F.U.F.",
"Y.F.T.A.6.e.p.9.] ` ' U L H K J < G ' ] ' X.-.-.,.h.J.P.J.P.J.U.",
"F.P.U.V.=.t.-.[ ' ` ] D U U N z 0 @ N ` K G C b   ~ U.U.P.F.P.J.",
"U.F.T.B.{ X.` ' ' ' G M 0 +   @ 0 v 2     @ 0 I @.O.k.C.U.P.J.U.",
"J.P.J.S.4.) [ [ G 0 5   A +.=. .  } 9. .| D Y t.p.p.<.:.V.U.P.H.",
"U.J.U.T.l.V ..D x 5 n  .w.i.i.t.=.P w.p.i.w.S } r.y.p.e.6.S.H.U.",
"J.P.J.J.h.[ T @.9 x >.p.t.t.t.t.p.>.>.y.r.p.-.l [ %.9.-.E Z.U.H.",
"U.J.T.B.%.i.9.i.I L %.t.y.y.t.t.t.q.t.y.t.t.-.' ] ] ] ' W D.U.J.",
"J.J.Y.C.@.p.p.9.{ { ' X.2.t.t.r.+.L X.2.q.X.` { [ ` P m R V.K.K.",
"U.J.U.N.=.p.=.M D D ` ` ] o.%._ < r ` ' ] ] { ` M 1 1 9 < e Z.U.",
"J.P.U.j.<.Y < 5 6 < v M N G m 5 0 1 G ' { ] J z 1 z z z l p Z.U.",
"P.J.P.d.c 4 v z z z 0 8 < 5 7 z 0 1 6 m K B 1 5 < 7 z v 5 F Z.U.",
"U.J.U.s.  Z 0 0 0 0 0 0 2 8 z 0 0 8 1 1 @ 1 8 9 8 z 7 p   z.U.U.",
"J.J.U.N.X e q 5 5 0 z z 0 5 z 0 0 z 0 6 8 0 z 0 8 5 % u   v.T.F.",
"U.J.U.J.a.  # % + 9 9 0 z 1 < 0 0 z 0 z 8 9 < @ + # +   a.Z.U.J.",
"J.P.J.U.B.^ R   & + @ 1 < +   @ 8 8 8 1 @ + + X %   R N.U.U.U.J.",
"U.J.U.J.U.U.V.  e e + + + @ + X @ + + + % y t t s   b.T.D.U.D.U.",
"F.U.J.P.F.P.U.z.    e y t w + + + @ & i X         Q S.J.U.H.U.H.",
"Y.F.P.J.U.F.U.J.n.Q         $ o o +     a c.b.b.c.Z.U.J.J.U.F.U.",
"J.U.F.U.F.U.J.U.T.J.n.f.c.^   d > = R z.N.T.T.U.T.J.U.J.U.F.U.F.",
"U.J.U.J.P.J.P.J.J.U.Y.Y.T.b.  j g = M.T.U.J.D.U.F.U.J.U.J.U.G.U.",
"F.U.F.U.G.U.F.P.J.L.J.F.T.z.= k h = N.U.J.F.U.J.U.J.U.F.U.G.P.G.",
"Y.J.Y.G.U.F.U.J.U.J.U.J.T.b.. k g = N.T.F.U.F.U.F.Y.J.Y.J.U.F.U.",
"F.Y.J.U.F.U.F.U.J.U.J.J.T.c.O j f ; N.Y.L.J.U.J.U.J.U.F.U.J.U.J.",
"T.F.Y.G.U.F.U.J.U.J.U.U.S./ - f f ; f.U.J.U.D.U.J.U.J.U.J.Y.J.U.",
"F.Y.G.U.J.U.J.U.K.K.U.S.!   * : : ,   f.U.J.U.F.P.J.Y.J.P.J.P.J.",
"T.J.Y.G.U.F.P.J.U.K.S.^   a u u u u a   l.U.F.U.J.U.F.Y.F.Y.J.U.",
"F.U.J.U.F.U.J.P.J.J.F.Z.A.A.A.Z.A.Z.A.Z.Z.D.U.J.P.J.U.F.Y.F.U.J."
};
